<?xml version="1.0" encoding="UTF-8" standalone="no"?>
<!-- Created with Inkscape (http://www.inkscape.org/) -->

<svg
   version="1.1"
   id="svg55"
   width="192"
   height="192"
   viewBox="0 0 192 192"
   xmlns="http://www.w3.org/2000/svg"
   xmlns:svg="http://www.w3.org/2000/svg">
  <defs
     id="defs59" />
  <g
     id="g61">
    <path
       style="fill:#2e6bc0;stroke:none"
       d="m 85.451076,0.63842624 c -14.2179,1.60788996 -27.7144,6.08678046 -40,13.44606076 -10.6643,6.3881 -20.1457,15.014 -27.4726,25.0689 -47.7178,65.485003 5.7687,161.755003 87.472604,152.515003 14.218,-1.608 27.714,-6.087 40,-13.446 10.664,-6.388 20.146,-15.014 27.473,-25.069 C 223.07727,84.42057 167.16208,-8.6021338 85.451076,0.63842624 M 136.45108,36.153387 95.451076,138.15339 h 10.000004 c 0,0 -0.49741,-0.1216 39,-95.000003 32.796,27.2752 29.349,80.377003 -1.009,107.737003 -24.394,21.984 -63.326104,24.135 -89.990704,4.98 -42.1047,-30.247 -40.2986,-95.786903 4.9997,-122.429803 14.2356,-8.3729 30.7399,-10.6315 47.000004,-8.9808 11.293,1.1464 21.482,5.7327 31,11.6936 M 81.928213,74.05796 81.832783,67.153387 h -11.38171 v 55.000003 h 12.404864 c 0,0 0.01394,-32.534045 0.22266,-35.972353 6.26627,-13.478381 21.457783,-6.189708 21.457783,-6.189708 L 109.29446,68.3944 c 0,0 -6.45081,-3.433134 -15.509345,-1.019786 -4.662835,1.242258 -10.759893,5.844039 -11.856902,6.683346 z"
       id="path223" />
  </g>
</svg>
