<svg rpl="" fill="blue" height="400" icon-name="community-outline" viewBox="0 0 333.332 333.332" width="400" xmlns="http://www.w3.org/2000/svg"><path d="M164.584 126.9a34.4 34.4 0 0 0 -16.232 3.7 27 27 0 0 0 -14.652 24.332v70H106.816v-121.6h25.868v15.5h0.648a48 48 0 0 1 16.668 -12.468 55.2 55.2 0 0 1 24.084 -5q6.1 -0.084 12.084 1.184 3.968 0.752 7.516 2.684l-10.816 25.984a28.4 28.4 0 0 0 -8.716 -3.332 46.8 46.8 0 0 0 -9.568 -0.984m168.748 39.768A166.668 166.668 0 1 1 166.668 0 166.84 166.84 0 0 1 333.336 166.668m-20.832 0A145.32 145.32 0 0 0 265.152 59.416L182.252 259.184h-22.568L248.016 45.7a145.8 145.8 0 1 0 64.484 120.968"/></svg>